<svg xmlns="http://www.w3.org/2000/svg" width="25" height="28" viewBox="0 0 25 28"><g><g><path fill="#4d4d4d" d="M23.958 14.586c0 4.88-3.97 8.851-8.853 8.851H9.94a.52.52 0 0 0-.35.135l-2.298 2.082v-2.228a.52.52 0 0 0-.348-.491 8.87 8.87 0 0 1-5.902-8.35V9.894c0-4.88 3.972-8.851 8.853-8.851h5.21c4.882 0 8.853 3.97 8.853 8.851zM15.105 0h-5.21C4.44 0 0 4.438 0 9.893v4.693a9.912 9.912 0 0 0 6.25 9.2v3.043a.52.52 0 0 0 .87.386l3.02-2.736h4.965c5.456 0 9.895-4.438 9.895-9.893V9.893C25 4.438 20.561 0 15.105 0z"/></g><g><path fill="#4d4d4d" d="M16.887 18.904c-.416.842-1.275 1.08-1.953.506-.033-.023-3.396-2.325-5.168-4.698C8.11 12.494 7.01 10.029 6.86 9.686c-.365-1.347-.3-2.174.214-2.762L8.118 5.73l1.915 2.895c.17.257.15.633-.044.855l-.566.646a.734.734 0 0 0-.138.636c.964 4.121 2.84 4.93 4.21 5.522l.2.087c.2.088.418-.013.532-.245l.327-.662a.476.476 0 0 1 .29-.263.37.37 0 0 1 .348.087l2.448 2.09zm1.642-2.212l-2.835-2.42c-.31-.265-.678-.354-1.04-.256-.361.1-.672.38-.873.79l-.134.269c-1.226-.533-2.58-1.214-3.389-4.295l.335-.383c.576-.658.636-1.809.136-2.566L8.512 4.478c-.167-.253-.459-.28-.651-.06l-1.392 1.59c-1.221 1.396-.651 3.46-.463 4.138.008.03.018.06.03.088.049.114 1.205 2.826 3.072 5.326 1.875 2.51 5.26 4.829 5.363 4.896.386.33.821.488 1.252.488.755 0 1.496-.487 1.937-1.379l1.005-2.033c.138-.282.077-.657-.136-.84z"/></g><g><path fill="#4d4d4d" d="M13.505 8.294a.605.605 0 1 0-.332 1.165 2.743 2.743 0 0 1 1.878 1.882.607.607 0 0 0 1.167-.328 3.963 3.963 0 0 0-2.713-2.72z"/></g><g><path fill="#4d4d4d" d="M17.862 12.182a.606.606 0 0 0 .584-.77 7.699 7.699 0 0 0-5.268-5.28.605.605 0 1 0-.331 1.167 6.477 6.477 0 0 1 4.432 4.442.607.607 0 0 0 .583.441z"/></g><g><path fill="#4d4d4d" d="M12.557 4.596a.606.606 0 1 0-.332 1.166 10.975 10.975 0 0 1 7.51 7.528.607.607 0 0 0 1.166-.329 12.196 12.196 0 0 0-8.344-8.365z"/></g></g></svg>