<svg xmlns="http://www.w3.org/2000/svg" width="26" height="19" viewBox="0 0 26 19"><g><g><path fill="#4d4d4d" d="M19.524 17.592L9.893 10.85l14.142-9.017zm-9.588-2.678l-.296-3.225 2.085 1.46zm-2.2-5.226l10.5-5.147-9.318 5.94a.417.417 0 0 0-.193.388l.177 1.924zM2 5.322l19.912-3.51L7.249 8.997zM25.144.974a.427.427 0 0 0-.04-.284V.685C25.1.68 25.094.678 25.092.673a.397.397 0 0 0-.044-.062.35.35 0 0 0-.037-.033.407.407 0 0 0-.146-.083l-.012-.003a.412.412 0 0 0-.127-.015c-.01.002-.02.001-.03.002-.01.001-.02-.002-.03 0L.863 4.676a.416.416 0 0 0-.166.752l6.17 4.32 2.343 6.23a.405.405 0 0 0 .678.144l.005.005 2.523-2.491 7.105 4.975a.416.416 0 0 0 .38.05.416.416 0 0 0 .262-.277l4.975-17.38.002-.008c.001-.008.001-.015.003-.022z"/></g></g></svg>