<svg xmlns="http://www.w3.org/2000/svg" width="25" height="25" viewBox="0 0 25 25"><g><g><path fill="#4d4d4d" d="M24.167 22.917c0 .708-.542 1.25-1.25 1.25h-6.25v-7.5h4.166v-5h-4.166V9.583c0-.25.166-.416.416-.416h4.167v-5h-4.625c-2.792.25-4.958 2.625-4.958 5.416v2.084H8.333v5h3.334v7.5H2.083c-.708 0-1.25-.542-1.25-1.25V2.083c0-.708.542-1.25 1.25-1.25h20.834c.708 0 1.25.542 1.25 1.25v20.834zM12.5 15.833H9.167V12.5H12.5V9.583c0-2.375 1.833-4.375 4.167-4.583h3.75v3.333h-3.334c-.708 0-1.25.542-1.25 1.25V12.5H20v3.333h-4.167v8.334H12.5zM22.917 0H2.083A2.063 2.063 0 0 0 0 2.083v20.834C0 24.083.917 25 2.083 25h20.834A2.063 2.063 0 0 0 25 22.917V2.083A2.063 2.063 0 0 0 22.917 0z"/></g></g></svg>